<mxfile host="app.diagrams.net" modified="2024-02-01T07:25:32.005Z" agent="Mozilla/5.0 (Windows NT 10.0; Win64; x64) AppleWebKit/537.36 (KHTML, like Gecko) Chrome/120.0.0.0 Safari/537.36" version="23.1.0" etag="YqKQEzzxSpuxt4Zyf7OP" type="github">
  <diagram name="Page-1" id="yd5q5SVHsxTTMJEt-0Uq">
    <mxGraphModel>
      <root>
        <mxCell id="0" />
        <mxCell id="1" parent="0" />
      </root>
    </mxGraphModel>
  </diagram>
</mxfile>
